<svg width="37" height="36" viewBox="0 0 37 36" fill="none" xmlns="http://www.w3.org/2000/svg">
<g clip-path="url(#clip0_58_6007)">
<path d="M18.0729 3C9.79289 3 3.08789 9.72 3.08789 18C3.08789 26.28 9.79289 33 18.0729 33C26.3679 33 33.0879 26.28 33.0879 18C33.0879 9.72 26.3679 3 18.0729 3ZM18.0879 30C11.4579 30 6.08789 24.63 6.08789 18C6.08789 11.37 11.4579 6 18.0879 6C24.7179 6 30.0879 11.37 30.0879 18C30.0879 24.63 24.7179 30 18.0879 30Z" fill="#F3E7FF"/>
<path d="M18.8379 10.5H16.5879V19.5L24.4629 24.225L25.5879 22.38L18.8379 18.375V10.5Z" fill="#F3E7FF"/>
</g>
<defs>
<clipPath id="clip0_58_6007">
<rect width="36" height="36" fill="white" transform="translate(0.0878906)"/>
</clipPath>
</defs>
</svg>
