<svg width="272" height="149" viewBox="0 0 272 149" fill="none" xmlns="http://www.w3.org/2000/svg">
<g clip-path="url(#clip0_58_6021)">
<path d="M0 148.853C0 148.902 60.9041 149 136 149C211.096 149 272 148.902 272 148.853C272 148.805 211.096 148.707 136 148.707C60.8466 148.707 0 148.805 0 148.853Z" fill="#263238"/>
<path d="M56.6524 63.857C57.2269 63.32 57.9164 62.783 58.0888 62.0995C58.2611 61.416 57.8589 60.7325 57.6866 60.049C57.2269 58.145 58.6059 56.0458 60.7318 55.4111C61.9958 55.0694 63.5471 55.0205 64.1792 54.0441C64.8112 53.0677 64.0068 51.9449 63.5472 50.9196C62.8002 49.2109 62.9726 47.2581 64.0643 45.6958C64.2366 45.3541 64.409 44.9635 64.5814 44.6218C66.1902 41.8878 69.5226 40.0815 72.8551 40.0815C73.3722 37.8357 75.5556 36.127 77.9688 35.6876C77.9688 34.9065 78.1411 34.1254 78.6008 33.3931C79.8074 31.3914 82.3929 30.1709 85.036 29.8292C88.8281 29.2922 92.9075 30.4639 95.5505 32.8072C96.9869 34.0766 98.1935 35.7365 100.147 36.3223C101.871 36.8105 103.767 36.3711 105.605 36.5664C108.019 36.8105 110.087 38.2751 111.351 40.0815C112.615 41.8878 113.132 43.9383 113.42 46.0376C113.707 47.9416 113.879 49.992 115.431 51.4078C116.924 52.7748 119.338 53.0189 121.176 53.9953C124.681 55.8017 125.83 60.2931 123.532 63.1735C122.785 64.1011 121.751 64.9311 121.636 66.054C121.578 67.0792 122.325 67.958 122.67 68.9344C123.589 71.4242 121.176 74.4023 118.131 74.5487C116.58 74.6464 114.913 74.1093 113.534 74.6952C112.156 75.281 111.638 76.6968 110.719 77.7709C108.995 79.8701 105.318 80.7001 102.618 79.5772C101.469 79.089 100.377 78.3079 99.1129 78.4055C97.8488 78.4544 96.872 79.3819 95.608 79.626C93.9992 79.919 92.4479 78.8937 91.4711 77.722C90.4943 76.5504 89.8049 75.2322 88.5983 74.2558C86.9895 73.0353 84.6912 72.7424 82.6228 72.1077C79.6925 71.2289 77.0495 69.6178 75.0385 67.5674L75.2683 77.3315C73.5446 77.3315 72.5678 76.8433 71.9358 76.0621C71.5911 76.2574 71.1889 76.4527 70.7867 76.5504C68.7757 77.1362 66.3625 76.5015 65.0985 75.0369C64.409 74.3046 64.0068 73.3282 63.0875 72.84C62.2831 72.4006 61.2489 72.4494 60.2721 72.303C58.2037 71.9612 56.3651 70.6431 55.6181 68.9832C54.8712 67.2745 55.3308 65.224 56.6524 63.857Z" fill="#263238"/>
<path d="M95.2058 41.0577C97.5615 42.3271 102.962 47.9414 103.077 49.6013L102.503 83.141C102.618 85.6796 103.077 87.8277 101.354 89.8782C96.5273 94.7602 85.3807 95.3461 82.8526 91.3428C82.6803 91.0499 82.5079 90.757 82.4504 90.5129C82.393 90.1711 82.2781 89.9758 82.2206 89.6829C81.5311 86.8513 81.6461 84.1174 81.6461 84.1174C81.3013 80.8464 81.1864 79.4794 81.1864 79.5283C81.1864 79.5283 72.9126 78.8936 70.442 69.9594C69.2354 65.5168 68.8332 58.1449 68.7757 52.0912C68.7757 51.0659 69.063 49.8942 69.6376 48.6249C72.6828 41.6436 79.75 38.275 88.1961 38.9096C90.3795 39.1049 93.597 39.8861 95.2058 41.0577Z" fill="#FFBF9D"/>
<path d="M80.9565 64.7358C80.9565 64.687 80.0372 64.5893 78.5434 64.5405C78.1412 64.5405 77.7964 64.4917 77.739 64.2964C77.6241 64.0523 77.739 63.7106 77.9113 63.32C78.1986 62.5389 78.4859 61.7089 78.8306 60.8302C80.0947 57.2663 80.9565 54.3859 80.7842 54.337C80.6118 54.2882 79.4627 57.1198 78.2561 60.6837C77.9688 61.5625 77.6815 62.3924 77.3942 63.1735C77.2793 63.5641 77.0495 63.9547 77.3368 64.4429C77.4517 64.687 77.739 64.8334 77.9688 64.8823C78.1986 64.9311 78.4284 64.9311 78.6008 64.9311C80.0372 64.8823 80.9565 64.7846 80.9565 64.7358Z" fill="#263238"/>
<path d="M81.2438 79.5772C81.2438 79.5772 88.4259 79.5284 95.2058 75.4763C95.2058 75.4763 92.1606 81.9694 81.4737 81.7742L81.2438 79.5772Z" fill="#FF9A6C"/>
<path d="M81.8759 67.7139C82.3355 67.0792 83.2548 66.6887 84.1741 66.7375C84.8062 66.7375 85.4956 66.9816 85.8978 67.3722C86.3 67.8116 86.4724 68.3974 86.1277 68.8368C85.7829 69.325 84.9785 69.5203 84.2316 69.3738C83.5421 69.2273 82.8526 68.8856 82.2781 68.5439C82.1057 68.4462 81.9333 68.3486 81.8184 68.2021C81.7035 68.0557 81.646 67.8604 81.7609 67.7139" fill="#FF9A6C"/>
<path d="M85.3807 65.3215C85.1509 65.3215 85.2658 66.6885 84.0017 67.7137C82.7377 68.739 81.014 68.739 81.014 68.8854C81.014 68.9831 81.4162 69.1295 82.1056 69.0807C82.7951 69.0807 83.8293 68.7878 84.5763 68.1531C85.3807 67.5185 85.668 66.6885 85.668 66.1515C85.668 65.6145 85.4956 65.3215 85.3807 65.3215Z" fill="#263238"/>
<path d="M85.6106 51.7495C85.7829 52.0912 87.2193 51.8471 89.0005 51.896C90.7242 51.9448 92.1606 52.2865 92.3904 51.9448C92.5053 51.7983 92.2181 51.5054 91.6435 51.2125C91.0689 50.9195 90.1496 50.6754 89.1154 50.6266C88.0812 50.5778 87.1619 50.7731 86.5299 51.066C85.8404 51.3101 85.5531 51.603 85.6106 51.7495Z" fill="#263238"/>
<path d="M71.0165 51.7494C71.3612 51.9935 72.5104 51.6517 74.0042 51.5541C75.4407 51.4076 76.7047 51.5541 76.9345 51.2612C77.0494 51.1147 76.8196 50.8218 76.245 50.6265C75.6705 50.3824 74.8086 50.2359 73.7744 50.3336C72.7976 50.4312 71.9358 50.7241 71.4761 51.0659C71.0165 51.3588 70.8441 51.6517 71.0165 51.7494Z" fill="#263238"/>
<path d="M100.951 61.2694C100.894 60.586 101.698 58.9749 102.445 58.7796C104.514 58.389 108.306 58.2914 108.708 62.7829C109.283 68.9343 101.871 68.1531 101.871 68.0067C101.871 67.8602 101.181 63.6128 100.951 61.2694Z" fill="#FFBF9D"/>
<path d="M103.882 65.5168C103.939 65.5168 103.997 65.5656 104.226 65.6633C104.456 65.7121 104.801 65.7609 105.146 65.6144C105.893 65.3215 106.41 64.2475 106.352 63.1246C106.295 62.5387 106.122 62.0505 105.835 61.6112C105.548 61.1718 105.203 60.8789 104.801 60.83C104.399 60.7812 104.169 60.9765 104.112 61.1718C104.054 61.3671 104.112 61.4647 104.054 61.4647C104.054 61.4647 103.882 61.3671 103.939 61.123C103.939 60.9765 104.054 60.83 104.169 60.7324C104.341 60.5859 104.571 60.5371 104.858 60.5371C105.433 60.5371 105.95 60.9277 106.295 61.4159C106.64 61.9041 106.869 62.4899 106.869 63.1246C106.927 64.3451 106.295 65.5656 105.261 65.9074C104.744 66.0538 104.341 65.9562 104.112 65.8097C103.939 65.6633 103.882 65.5656 103.882 65.5168Z" fill="#FF9A6C"/>
<path d="M103.882 49.6014C103.997 49.8943 103.882 49.3085 103.882 49.6014V49.6014Z" fill="#455A64"/>
<path d="M74.1766 40.9602C76.8771 39.3979 79.0604 37.6404 85.6679 37.6404C90.7241 37.6404 94.4588 40.1302 98.4808 43.1083C103.652 46.9163 106.869 53.1165 104.744 58.6332L102.56 59.3655L100.492 55.1669C96.9294 48.625 89.575 43.1083 81.646 42.8153C80.8416 42.7665 80.0946 42.7665 79.4626 42.8642C74.234 43.3036 68.8331 51.4566 68.8331 51.4566C68.8331 51.4566 67.8563 44.5729 74.1766 40.9602Z" fill="#FAFAFA"/>
<path d="M102.56 59.3167C102.445 60.5861 102.215 61.7578 102.101 63.0271C102.043 63.5641 101.871 64.2476 101.296 64.3941C100.836 64.4917 100.377 64.2476 100.147 63.9059C99.9172 63.5641 99.8597 63.1736 99.8022 62.783C99.3426 58.9262 98.9979 55.9481 98.5382 52.0913C99.8597 53.6536 101.181 56.3387 102.56 59.3167Z" fill="#263238"/>
<path d="M103.767 69.0319C103.767 69.0319 103.709 69.1784 103.824 69.3736C103.939 69.5689 104.169 69.8618 104.571 70.0083C104.973 70.1548 105.548 70.2036 106.123 70.0571C106.697 69.9107 107.272 69.4713 107.502 68.9343C107.731 68.3484 107.616 67.7626 107.329 67.3232C107.042 66.8838 106.525 66.5909 106.065 66.4932C105.605 66.3956 105.261 66.3956 105.031 66.4444C104.801 66.4932 104.686 66.5421 104.686 66.5421C104.686 66.5909 105.261 66.3956 106.008 66.6397C106.41 66.7373 106.812 66.9814 107.099 67.4208C107.387 67.8114 107.444 68.3484 107.214 68.8366C107.042 69.3248 106.525 69.6666 106.008 69.8619C105.491 70.0083 104.973 70.0083 104.629 69.8619C104.226 69.7154 103.997 69.5201 103.882 69.3736C103.767 69.1295 103.767 69.0319 103.767 69.0319Z" fill="#E0E0E0"/>
<path d="M88.4833 44.329C88.4833 44.329 82.7376 45.6959 80.8415 45.1589C78.6582 44.5731 77.6814 43.1573 77.6814 43.1573C77.6814 43.1573 82.1056 41.4974 88.4833 44.329Z" fill="#263238"/>
<path d="M56.7098 56.8269C56.7098 56.8269 56.4225 56.6316 56.0778 56.1923C55.733 55.7529 55.3883 55.0206 55.4457 54.093C55.5032 53.1654 56.1927 52.0425 57.3993 51.3102C58.6058 50.5291 60.3296 50.1873 62.1107 50.285H62.3405L62.2256 50.0897C61.651 49.0645 61.0765 47.9904 60.9041 46.7699C60.7317 45.7935 60.7892 44.8171 61.1339 43.9383C61.4787 43.0596 62.1107 42.3272 62.8576 41.7902C64.409 40.6674 66.1901 40.2768 67.7415 40.1792C69.2353 40.0815 70.4994 40.1791 71.3612 40.2768C71.7634 40.3256 72.1082 40.3744 72.338 40.3744C72.5678 40.4233 72.6827 40.4233 72.6827 40.4233C72.6827 40.4233 72.5678 40.3744 72.338 40.3256C72.1082 40.2768 71.7634 40.228 71.3612 40.1792C70.4994 40.0815 69.2928 39.935 67.7415 40.0327C66.1901 40.1303 64.2941 40.5209 62.7427 41.6438C61.9383 42.2296 61.2489 42.9619 60.9041 43.8895C60.5594 44.8171 60.5019 45.8423 60.6743 46.8187C60.9041 48.0881 61.4787 49.2109 62.0533 50.2362L62.1682 50.0409C60.3295 49.9432 58.5484 50.3338 57.2843 51.1638C56.0203 51.9937 55.3308 53.1166 55.2734 54.093C55.2159 55.0694 55.6181 55.8505 55.9628 56.2899C56.365 56.6805 56.7098 56.8269 56.7098 56.8269Z" fill="#263238"/>
<path d="M116.177 67.1769C116.177 67.1769 116.235 67.1769 116.35 67.1769C116.465 67.1769 116.637 67.1769 116.809 67.1769C117.212 67.1769 117.786 67.1281 118.591 67.0792C119.338 66.9816 120.314 66.884 121.349 66.5422C122.383 66.2005 123.532 65.6635 124.336 64.687C125.198 63.7106 125.485 62.3925 125.428 60.9767C125.428 60.2932 125.313 59.5609 125.198 58.8286C125.083 58.0963 124.968 57.364 124.681 56.5829C124.394 55.8505 123.877 55.1182 123.072 54.63C122.268 54.093 121.176 54.093 120.199 54.093C119.223 54.093 118.188 54.1418 117.384 53.6536C116.58 53.1654 116.177 52.2867 116.12 51.4567C116.005 50.5779 116.177 49.6992 116.235 48.8204C116.292 47.9416 116.235 47.0629 116.12 46.2329C115.833 44.573 115.258 42.962 114.339 41.595C113.477 40.228 112.328 39.0563 111.064 38.1775C109.8 37.2988 108.421 36.6641 107.157 36.2736C104.514 35.4924 102.215 35.5412 100.722 35.7853C99.2278 36.0295 98.4234 36.42 98.4234 36.42C98.4234 36.42 98.4808 36.42 98.5957 36.3712C98.7106 36.3224 98.8256 36.2735 99.0554 36.2247C99.4576 36.1271 100.032 35.9806 100.779 35.883C102.273 35.6877 104.571 35.5901 107.157 36.42C108.421 36.8106 109.742 37.4452 111.006 38.324C112.213 39.2028 113.305 40.3256 114.166 41.6926C115.028 43.0596 115.603 44.573 115.89 46.2329C116.005 47.0629 116.063 47.8928 116.005 48.7716C115.948 49.6504 115.775 50.5291 115.89 51.4079C116.005 52.2867 116.407 53.2142 117.269 53.8001C117.729 54.0442 118.246 54.1907 118.763 54.2395C119.28 54.2883 119.797 54.2883 120.257 54.2883C121.234 54.2883 122.21 54.2883 122.957 54.7765C123.704 55.2159 124.221 55.8994 124.509 56.6317C124.796 57.364 124.911 58.0963 125.026 58.8286C125.141 59.5609 125.256 60.2444 125.256 60.9279C125.313 62.2948 125.026 63.5642 124.221 64.4918C123.417 65.4194 122.325 65.9564 121.349 66.2981C120.314 66.6399 119.395 66.7863 118.648 66.884C117.901 66.9816 117.269 67.0304 116.867 67.0304C116.695 67.0304 116.522 67.0792 116.407 67.0792C116.235 67.1769 116.177 67.1769 116.177 67.1769Z" fill="#263238"/>
<path d="M97.7913 43.1084C97.7913 43.1084 97.9637 43.3037 98.251 43.6454C98.4234 43.7919 98.5957 44.036 98.8255 44.2801C99.0554 44.5242 99.2852 44.8171 99.515 45.1589C100.032 45.7935 100.607 46.5746 101.124 47.5022C101.641 48.4298 102.215 49.4551 102.675 50.5779C103.135 51.7008 103.422 52.7748 103.652 53.8001C103.882 54.8253 103.997 55.7041 104.054 56.4852C104.112 56.8758 104.112 57.2175 104.112 57.5104C104.112 57.8034 104.112 58.0963 104.112 58.2916C104.112 58.7309 104.112 58.975 104.112 58.975C104.112 58.975 104.169 58.7309 104.226 58.2916C104.226 58.0963 104.284 57.8034 104.284 57.5104C104.284 57.2175 104.284 56.8269 104.284 56.4364C104.284 55.6552 104.169 54.7277 103.939 53.7024C103.709 52.6772 103.422 51.5543 102.962 50.4315C102.503 49.3086 101.986 48.2345 101.411 47.3558C100.837 46.4282 100.262 45.6471 99.7449 45.0124C99.515 44.6706 99.2277 44.4265 98.9979 44.1824C98.7681 43.9383 98.5957 43.7431 98.4233 43.5478C97.9637 43.2549 97.7913 43.1084 97.7913 43.1084Z" fill="#263238"/>
<path d="M91.9882 40.7651C91.9882 40.7651 92.218 40.9604 92.6777 41.351C92.9075 41.5463 93.1948 41.7415 93.482 41.9856C93.7693 42.2297 94.1715 42.5227 94.5163 42.8644C95.2632 43.5479 96.1251 44.3779 97.0444 45.3543C97.9062 46.3307 98.8255 47.4535 99.6874 48.7229C100.492 49.9922 101.181 51.2127 101.698 52.3844C102.215 53.5561 102.618 54.6301 102.905 55.5089C103.077 55.9483 103.135 56.3877 103.25 56.7294C103.365 57.0712 103.422 57.4129 103.48 57.657C103.594 58.194 103.652 58.4381 103.709 58.4381C103.709 58.4381 103.709 58.1452 103.594 57.6082C103.537 57.3641 103.48 57.0223 103.422 56.6806C103.307 56.29 103.25 55.8995 103.135 55.4113C102.905 54.4837 102.503 53.4096 101.986 52.2379C101.469 51.0662 100.779 49.7969 99.9747 48.5764C99.1128 47.3071 98.1935 46.1842 97.3317 45.2078C96.4123 44.2314 95.5505 43.4014 94.7461 42.718C94.3439 42.3762 93.9992 42.0833 93.6544 41.8392C93.3097 41.5951 93.0224 41.3998 92.7926 41.2045C92.2755 40.9604 91.9882 40.7651 91.9882 40.7651Z" fill="#263238"/>
<path d="M112.27 69.7643C112.27 69.7643 112.328 69.8131 112.443 69.8619C112.558 69.9107 112.73 70.0084 112.96 70.106C113.42 70.3013 114.109 70.4966 115.086 70.4966C116.005 70.4966 117.212 70.3013 118.361 69.6178C119.453 68.9831 120.429 67.8114 120.774 66.3956C120.946 65.6633 121.004 64.931 120.831 64.1499C120.659 63.3688 120.372 62.5877 119.855 61.8553C119.338 61.123 118.706 60.4396 117.901 59.8049C117.097 59.1702 116.177 58.7308 115.201 58.2426C114.224 57.8033 113.247 57.315 112.443 56.5827C111.638 55.8993 111.121 54.9717 110.834 53.9953C110.547 53.0188 110.374 51.9936 110.317 50.9196C110.259 49.8455 110.259 48.7715 110.145 47.6974C110.03 46.6234 109.8 45.5005 109.283 44.5241C108.823 43.4989 107.961 42.6689 106.927 42.0831C105.893 41.4972 104.744 41.1555 103.652 40.8626C102.503 40.5696 101.411 40.3744 100.377 40.0814C99.3427 39.7885 98.3084 39.4468 97.5041 38.9586C97.2742 38.8121 97.1019 38.7145 96.9295 38.5192C96.7571 38.3727 96.5847 38.2263 96.4124 38.0798C96.1251 37.738 95.8378 37.3963 95.608 37.0546C95.0909 36.3223 94.6312 35.5899 93.9992 35.0041C93.3672 34.4183 92.6202 33.9789 91.8158 33.686C90.2645 33.1001 88.5983 33.1001 87.3342 33.4418C86.0127 33.7836 85.0934 34.4183 84.4614 35.0041C83.8294 35.5899 83.4846 36.1758 83.3123 36.5664C83.1399 36.9569 83.0824 37.201 83.0824 37.201C83.0824 37.201 83.1399 37.0057 83.3697 36.6152C83.5995 36.2246 83.9443 35.6876 84.5763 35.1017C85.2083 34.5159 86.1276 33.9301 87.3917 33.5883C88.6557 33.2466 90.2645 33.2954 91.7584 33.8324C92.5053 34.1253 93.2523 34.5159 93.8843 35.1017C94.5163 35.6876 94.9185 36.3711 95.4356 37.1034C95.6655 37.4451 95.9527 37.8357 96.2975 38.1774C96.4698 38.3727 96.6422 38.5192 96.8146 38.6656C96.987 38.8121 97.2168 38.9586 97.4466 39.105C98.3085 39.642 99.3427 40.0326 100.434 40.2767C101.526 40.5696 102.618 40.7649 103.709 41.0578C104.801 41.3508 105.95 41.6925 106.927 42.2295C107.904 42.7666 108.708 43.5965 109.168 44.5729C109.627 45.5493 109.857 46.5745 110.03 47.6486C110.145 48.7226 110.145 49.7967 110.202 50.8707C110.259 51.9448 110.432 52.97 110.719 53.9953C111.064 54.9717 111.581 55.9481 112.443 56.6804C113.247 57.4127 114.281 57.9009 115.258 58.3403C116.235 58.7797 117.154 59.2679 117.959 59.8537C118.763 60.4396 119.395 61.123 119.855 61.8065C120.372 62.5388 120.659 63.2711 120.831 64.0523C120.946 64.8334 120.946 65.5657 120.774 66.2492C120.429 67.6162 119.51 68.739 118.476 69.4225C117.384 70.0572 116.235 70.3013 115.316 70.3013C114.396 70.3013 113.649 70.106 113.247 69.9595C112.5 69.9107 112.27 69.7643 112.27 69.7643Z" fill="#455A64"/>
<path d="M72.6827 58.9749C72.6827 59.6096 73.2573 60.1466 74.0617 60.1954C74.8661 60.2443 75.4981 59.756 75.5555 59.1214C75.5555 58.4867 74.981 57.9497 74.1766 57.9009C73.3722 57.8032 72.6827 58.2914 72.6827 58.9749Z" fill="#263238"/>
<path d="M71.4761 55.2647C71.6485 55.4111 72.7402 54.7277 74.2915 54.7277C75.8428 54.7277 76.9345 55.4111 77.1069 55.2159C77.1643 55.167 76.992 54.8741 76.5323 54.5324C76.0727 54.2395 75.2108 53.9465 74.2915 53.9465C73.3148 53.9465 72.5104 54.2395 72.0507 54.5324C71.5336 54.8741 71.3612 55.167 71.4761 55.2647Z" fill="#263238"/>
<path d="M86.0127 58.9749C86.0127 59.6096 86.5872 60.1466 87.3916 60.1954C88.196 60.2443 88.828 59.756 88.8855 59.1214C88.8855 58.4867 88.3109 57.9497 87.5065 57.9009C86.7021 57.8032 86.0701 58.2914 86.0127 58.9749Z" fill="#263238"/>
<path d="M86.0702 55.2647C86.2426 55.4111 87.3343 54.7277 88.8856 54.7277C90.4369 54.7277 91.5286 55.4111 91.701 55.2159C91.7585 55.167 91.5861 54.8741 91.1264 54.5324C90.6668 54.2395 89.8049 53.9465 88.8856 53.9465C87.9089 53.9465 87.1045 54.2395 86.6448 54.5324C86.1277 54.8741 85.9553 55.167 86.0702 55.2647Z" fill="#263238"/>
<path d="M59.9274 96.2253C66.5923 89.3416 72.338 88.3652 72.338 88.3652L72.2806 112.922L51.079 135.721L42.4605 116.974C42.4605 116.925 55.3883 100.863 59.9274 96.2253Z" fill="#FAFAFA"/>
<path d="M81.7609 86.4121L72.2805 88.3649C72.2805 88.3649 67.3967 112.531 69.1778 118.78C70.6717 124.101 75.5555 148.658 75.5555 148.658H134.161L114.511 100.716C114.511 100.716 114.396 90.1712 117.441 85.2892C115.603 84.8986 109.398 83.9222 104.054 83.0923C104.054 83.0923 100.492 86.8515 92.1031 87.9743C83.5995 89.0972 81.7609 86.4121 81.7609 86.4121Z" fill="#FAFAFA"/>
<path d="M70.0971 106.673H106.927C110.144 122.686 117.959 128.788 131.806 138.064L134.104 148.707H75.4981L72.1081 132.01L72.2805 125.859L70.0971 106.673Z" fill="#FEB94C"/>
<path d="M115.948 85.1428C115.948 85.1428 129.967 86.1192 134.966 105.599C137.264 114.435 140.137 124.736 140.941 131.669C141.516 136.697 139.447 143.679 133.702 144.801L123.36 145.924C118.763 145.973 115.545 142.8 114.569 139.382L112.96 133.963C111.868 127.324 117.786 126.738 121.176 126.787L113.822 102.035L112.385 90.0737L115.948 85.1428Z" fill="#FAFAFA"/>
<path d="M68.1436 101.693C68.1436 101.693 68.0862 101.791 68.0862 101.986C68.0287 102.181 68.0287 102.425 67.9712 102.767C67.9138 102.962 67.9138 103.109 67.8563 103.353C67.8563 103.548 67.7989 103.792 67.7989 104.036C67.7414 104.525 67.684 105.062 67.6265 105.696C67.5116 106.917 67.5116 108.382 67.5691 110.041C67.6265 111.652 67.8563 113.459 68.2011 115.314C68.5458 117.169 68.948 118.927 69.3502 120.538C69.7524 122.149 70.1546 123.565 70.4993 124.736C70.8441 125.908 71.1314 126.884 71.3612 127.568C71.4761 127.91 71.5336 128.154 71.591 128.349C71.6485 128.544 71.7059 128.593 71.7059 128.593C71.7059 128.593 71.7059 128.496 71.6485 128.3C71.591 128.105 71.5336 127.861 71.4186 127.519C71.2463 126.836 70.959 125.859 70.6143 124.688C70.2695 123.467 69.8673 122.051 69.5226 120.489C69.1204 118.878 68.7182 117.12 68.4309 115.265C68.0862 113.41 67.9138 111.604 67.7989 109.993C67.7414 108.382 67.684 106.917 67.7989 105.696C67.7989 105.062 67.8563 104.525 67.9138 104.036C67.9138 103.792 67.9712 103.548 67.9712 103.353C67.9712 103.158 68.0287 102.962 68.0287 102.767C68.0862 102.425 68.0862 102.181 68.1436 101.986C68.1436 101.791 68.1436 101.693 68.1436 101.693Z" fill="#263238"/>
<path d="M132.265 133.621C132.265 133.621 132.265 133.426 132.15 133.133C132.036 132.84 131.863 132.401 131.633 131.864C131.059 130.839 130.025 129.423 128.301 128.398C126.635 127.372 124.739 126.884 123.417 126.787C122.728 126.738 122.21 126.738 121.808 126.738C121.406 126.738 121.234 126.787 121.234 126.787C121.234 126.835 122.096 126.738 123.417 126.884C124.739 127.031 126.577 127.519 128.186 128.544C129.852 129.569 130.944 130.888 131.518 131.913C132.036 132.938 132.208 133.621 132.265 133.621Z" fill="#263238"/>
<path d="M128.99 123.906C128.99 123.906 128.875 123.906 128.646 123.857C128.416 123.857 128.128 123.857 127.726 123.906C126.922 123.955 125.888 124.15 124.796 124.541C123.704 124.931 122.785 125.42 122.153 125.859C121.866 126.054 121.636 126.25 121.464 126.396C121.291 126.543 121.234 126.591 121.234 126.64C121.234 126.64 121.636 126.396 122.21 126.006C122.842 125.615 123.762 125.127 124.796 124.736C125.888 124.346 126.922 124.15 127.669 124.053C128.531 123.955 128.99 123.955 128.99 123.906Z" fill="#263238"/>
<path d="M114.511 98.666C114.511 98.666 114.511 98.4707 114.569 98.129C114.569 97.7872 114.569 97.299 114.626 96.7132C114.741 95.5415 114.971 93.8816 115.545 92.1241C116.12 90.3665 116.924 88.8531 117.556 87.779C117.901 87.242 118.131 86.8026 118.361 86.5585C118.533 86.2656 118.648 86.1191 118.648 86.1191C118.648 86.1191 118.533 86.2656 118.303 86.5585C118.074 86.8515 117.786 87.242 117.441 87.779C116.752 88.8043 115.948 90.3665 115.373 92.1241C114.798 93.8816 114.569 95.5415 114.511 96.762C114.511 97.3478 114.511 97.8361 114.511 98.1778C114.454 98.4707 114.511 98.666 114.511 98.666Z" fill="#263238"/>
<g opacity="0.3">
<path d="M68.7757 118.048C65.2134 112.921 65.1559 106.233 68.2586 100.863C67.3393 106.575 67.3968 112.384 68.8906 117.999" fill="black"/>
</g>
<path d="M117.212 143.776C117.212 143.776 117.442 144.02 117.959 144.411C118.476 144.752 119.338 145.192 120.544 145.436C121.693 145.729 123.187 145.827 124.739 145.729C126.347 145.631 128.129 145.485 129.91 145.241C131.748 144.997 133.472 144.704 134.966 144.264C135.713 144.02 136.287 143.63 136.804 143.19C137.322 142.8 137.781 142.36 138.126 141.921C138.815 141.091 139.275 140.359 139.562 139.822C139.677 139.578 139.792 139.333 139.85 139.187C139.907 139.041 139.965 138.992 139.965 138.992C139.965 138.992 139.965 139.089 139.907 139.236C139.85 139.382 139.792 139.578 139.62 139.87C139.39 140.407 138.93 141.189 138.241 142.019C137.896 142.458 137.437 142.897 136.919 143.337C136.402 143.776 135.77 144.167 135.023 144.46C133.472 144.948 131.748 145.241 129.91 145.485C128.071 145.729 126.29 145.875 124.681 145.973C123.072 146.022 121.578 145.924 120.429 145.631C119.223 145.338 118.361 144.899 117.844 144.508C117.614 144.313 117.384 144.167 117.269 144.02C117.269 143.874 117.212 143.776 117.212 143.776Z" fill="#263238"/>
<path d="M114.913 104.866C114.971 104.866 116.465 109.699 118.188 115.753C119.97 121.758 121.349 126.64 121.291 126.689C121.234 126.689 119.74 121.856 118.016 115.802C116.235 109.797 114.856 104.915 114.913 104.866Z" fill="#263238"/>
<path d="M113.132 132.352C113.132 132.352 113.075 132.206 113.075 131.962C113.075 131.717 113.017 131.327 113.017 130.839C113.075 130.35 113.247 129.813 113.649 129.276C113.879 129.032 114.052 128.739 114.396 128.495C114.684 128.251 115.028 128.056 115.373 127.861C116.867 127.177 118.361 126.884 119.452 126.738C119.97 126.689 120.429 126.64 120.774 126.64C121.061 126.64 121.234 126.64 121.234 126.64C121.234 126.689 120.544 126.689 119.51 126.835C118.476 126.982 116.982 127.324 115.545 128.007C115.201 128.202 114.856 128.398 114.569 128.593C114.281 128.837 114.052 129.081 113.879 129.325C113.477 129.813 113.305 130.35 113.247 130.79C113.19 131.229 113.19 131.62 113.19 131.864C113.132 132.206 113.132 132.352 113.132 132.352Z" fill="#263238"/>
<path d="M84.8043 131.718C84.8625 131.718 84.9208 131.768 84.9208 131.768C84.9208 131.718 84.8625 131.718 84.8043 131.718Z" fill="#FFBF9D"/>
<path d="M71.5912 141.921C72.7403 140.115 81.4737 135.33 81.4737 135.33L79.118 134.842L76.475 135.77C76.475 135.77 76.3026 136.697 75.3259 137.869C74.3491 139.041 72.7403 137.82 72.7403 137.82L73.832 133.28L79.0031 130.644C79.0031 130.644 83.8869 131.278 84.6913 131.62L86.7597 133.231C87.6791 133.817 90.3221 136.258 91.0115 136.307C91.7585 136.356 114.396 132.059 114.396 132.059C117.499 134.159 119.165 138.308 119.625 141.286C119.625 141.286 120.2 142.751 119.568 143.581L91.7585 145.436L85.8404 146.803C85.8404 146.803 82.5654 147.926 81.0141 148.219C79.0606 148.561 77.739 148.024 77.6816 147.096C77.6241 146.168 79.1755 146.071 79.1755 146.071C79.1755 146.071 81.6461 145.29 82.9676 144.655C84.2891 144.02 85.0935 142.653 85.0935 142.653L82.9676 142.849C82.9676 142.849 78.486 145.485 76.8197 146.266C75.1535 147.047 74.8088 145.631 74.6938 145.192C74.5789 144.753 79.6926 140.456 79.6926 140.456C79.6926 140.456 74.8088 143.044 73.8895 143.679C73.0276 144.313 71.7061 144.509 71.4188 144.069C71.2464 143.727 70.442 143.727 71.5912 141.921Z" fill="#FFBF9D"/>
<path d="M85.0331 131.766C85.0941 131.819 85.0941 131.819 85.0331 131.766C85.0941 131.819 85.0941 131.819 85.0331 131.766Z" fill="#FFBF9D"/>
<path d="M95.7803 142.36C95.7803 142.36 95.7803 142.263 95.7803 142.067C95.7803 141.97 95.7803 141.872 95.7803 141.726C95.7803 141.579 95.7228 141.433 95.6654 141.286C95.493 140.603 94.9759 139.773 94.229 138.943C93.482 138.113 92.6776 137.478 92.103 137.039C91.5285 136.6 91.1263 136.355 91.0688 136.355C91.0688 136.355 91.4136 136.648 91.9881 137.137C92.5627 137.576 93.3096 138.259 94.0566 139.041C94.8035 139.822 95.3206 140.652 95.493 141.286C95.7803 141.921 95.7228 142.36 95.7803 142.36Z" fill="#FF9A6C"/>
<path d="M81.7033 135.233C81.7033 135.282 82.3928 135.331 83.1972 135.135C84.0016 134.891 84.5187 134.501 84.4612 134.452C84.4038 134.403 83.8867 134.745 83.1397 134.94C82.3928 135.135 81.7033 135.184 81.7033 135.233Z" fill="#FF9A6C"/>
<path d="M80.2095 140.164C80.2095 140.213 81.2437 139.92 82.4503 139.48C83.6569 139.041 84.6337 138.699 84.6337 138.65C84.6337 138.602 83.5994 138.894 82.3929 139.334C81.1863 139.724 80.2095 140.115 80.2095 140.164Z" fill="#FF9A6C"/>
<path d="M84.921 142.702C84.921 142.751 85.4381 142.556 86.0701 142.361C86.7021 142.165 87.2192 142.019 87.1618 141.97C87.1618 141.921 86.5872 142.019 85.9552 142.214C85.3806 142.409 84.921 142.653 84.921 142.702Z" fill="#FF9A6C"/>
<path d="M80.9563 140.505C80.9563 140.554 81.416 140.701 81.8182 141.14C82.2204 141.58 82.2778 142.019 82.3353 142.019C82.3353 142.019 82.3928 141.921 82.3353 141.726C82.2778 141.531 82.2204 141.287 81.9906 141.042C81.7607 140.798 81.5309 140.652 81.3011 140.554C81.1287 140.457 80.9563 140.457 80.9563 140.505Z" fill="#FF9A6C"/>
<path d="M78.8879 137.723C78.8879 137.772 79.2327 137.967 79.52 138.309C79.8072 138.699 79.7498 139.041 79.8647 139.041C79.9222 139.041 80.0371 138.65 79.7498 138.211C79.405 137.82 78.8879 137.674 78.8879 137.723Z" fill="#FF9A6C"/>
<path d="M79.5775 132.792C79.5775 132.792 79.6924 132.743 79.7498 132.548C79.8073 132.401 79.8647 132.157 79.7498 131.913C79.6924 131.669 79.52 131.474 79.4051 131.327C79.2902 131.229 79.1752 131.181 79.1178 131.181C79.0603 131.229 79.4625 131.474 79.5775 131.962C79.6924 132.401 79.52 132.792 79.5775 132.792Z" fill="#FF9A6C"/>
<path d="M119.912 144.313C119.912 144.313 119.912 144.118 119.855 143.776C119.855 143.581 119.855 143.386 119.797 143.142C119.797 142.897 119.797 142.605 119.74 142.312C119.625 141.091 119.28 139.382 118.533 137.576C118.131 136.697 117.671 135.867 117.212 135.135C116.982 134.793 116.752 134.451 116.465 134.159C116.35 134.012 116.235 133.866 116.12 133.719C116.005 133.573 115.89 133.475 115.775 133.329C114.856 132.352 114.166 131.864 114.166 131.815C114.166 131.815 114.339 131.913 114.683 132.157C114.856 132.255 115.028 132.401 115.258 132.596C115.488 132.792 115.718 132.987 115.948 133.231C116.062 133.329 116.177 133.475 116.292 133.622C116.407 133.768 116.522 133.914 116.637 134.061C116.924 134.354 117.154 134.696 117.384 135.037C117.901 135.77 118.361 136.6 118.763 137.478C119.51 139.285 119.855 141.042 119.912 142.263C119.969 142.556 119.969 142.849 119.969 143.093C119.969 143.337 119.969 143.532 119.969 143.727C119.969 144.118 119.969 144.313 119.912 144.313Z" fill="#263238"/>
<g opacity="0.3">
<path d="M100.664 109.944V110.578L104.916 110.822L107.042 96.3228C107.042 96.3228 107.961 91.4407 108.536 89.6832C109.11 87.9257 111.638 84.3618 111.638 84.3618L109.8 84.0688L106.18 89.0974L100.664 109.944Z" fill="black"/>
</g>
<path d="M100.09 109.944C100.09 109.944 101.986 96.4692 103.767 91.099C105.548 85.7287 108.306 83.8247 108.306 83.8247L111.006 84.2641C111.006 84.2641 108.306 87.0957 107.214 92.0265C106.18 96.9574 104.226 110.139 104.226 110.139L100.09 109.944Z" fill="#FEB94C"/>
<path d="M100.09 109.944C100.09 109.944 100.147 109.944 100.319 109.944C100.492 109.944 100.779 109.992 101.124 109.992C101.871 110.041 102.905 110.09 104.226 110.139H104.284V110.09C104.686 107.649 105.261 103.939 106.008 99.4472C106.41 97.2015 106.812 94.7116 107.329 92.1242C107.616 90.806 108.019 89.5367 108.593 88.2185C109.168 86.9492 109.915 85.631 110.891 84.5082L111.064 84.3129L111.236 84.1664L111.006 84.1176C110.087 83.9711 109.168 83.8247 108.306 83.6782H108.248L108.191 83.727C107.329 84.4105 106.697 85.1917 106.123 85.9728C105.548 86.8027 105.088 87.6327 104.686 88.4626C103.882 90.1225 103.365 91.8312 102.962 93.4423C102.158 96.6645 101.698 99.5937 101.239 102.035C100.837 104.476 100.549 106.429 100.377 107.796C100.262 108.479 100.205 108.967 100.147 109.358C100.147 109.504 100.09 109.651 100.09 109.748C100.09 109.895 100.09 109.944 100.09 109.944C100.09 109.944 100.09 109.895 100.147 109.797C100.147 109.7 100.205 109.553 100.205 109.407C100.262 109.016 100.377 108.528 100.434 107.844C100.664 106.477 100.951 104.525 101.411 102.084C101.871 99.6425 102.388 96.7133 103.192 93.4911C103.594 91.8801 104.112 90.2202 104.916 88.5603C105.318 87.7303 105.778 86.9004 106.352 86.1192C106.927 85.3381 107.559 84.557 108.363 83.9223L108.248 83.9711C109.11 84.1176 110.03 84.2641 110.949 84.4105L110.834 84.2153L110.662 84.4105C109.627 85.5822 108.88 86.9004 108.306 88.2185C107.731 89.5367 107.272 90.8548 107.042 92.173C106.525 94.7605 106.123 97.2503 105.72 99.496C104.973 104.036 104.456 107.747 104.112 110.139L104.169 110.09C102.848 110.041 101.813 110.041 101.124 109.992C100.779 109.992 100.549 109.992 100.319 109.992C100.205 109.944 100.09 109.944 100.09 109.944Z" fill="#FEB94C"/>
<path d="M72.3379 88.3648C72.3379 88.3648 71.7059 103.06 73.8893 110.627L78.0261 110.529C78.0261 110.529 74.9235 92.2216 75.3831 87.6813C75.3257 87.6325 73.602 87.6325 72.3379 88.3648Z" fill="#FEB94C"/>
<path d="M72.338 88.3649C72.338 88.3649 72.5678 88.2184 73.0849 88.0719C73.602 87.9255 74.349 87.7302 75.3832 87.6814L75.3257 87.6326C75.1534 89.683 75.4407 92.9052 75.9003 96.8596C76.36 100.814 77.0494 105.501 77.9113 110.529L78.0262 110.383C77.9687 110.383 77.9687 110.383 77.9113 110.383C76.5323 110.432 75.1534 110.481 73.8893 110.481L74.0617 110.578C73.2573 107.502 72.9126 104.524 72.7402 101.888C72.5104 99.203 72.4529 96.8108 72.4529 94.8092C72.3954 92.8075 72.4529 91.1965 72.4529 90.0736C72.4529 89.5366 72.4529 89.0972 72.4529 88.8043C72.338 88.5113 72.338 88.3649 72.338 88.3649C72.338 88.3649 72.338 88.5113 72.2805 88.8043C72.2805 89.0972 72.2231 89.5366 72.2231 90.0736C72.1656 91.1965 72.1656 92.8075 72.1656 94.8092C72.1656 96.8108 72.2231 99.203 72.3954 101.888C72.5678 104.573 72.9125 107.551 73.7169 110.627V110.725H73.8319C75.0959 110.676 76.4749 110.676 77.8538 110.627C77.9113 110.627 77.9113 110.627 77.9687 110.627H78.1411V110.481C77.3367 105.452 76.6472 100.765 76.1301 96.8108C75.613 92.8564 75.3257 89.683 75.3832 87.6326V87.5837H75.3257C74.2915 87.6326 73.4871 87.8278 73.0275 88.0231C72.7976 88.1208 72.6253 88.2184 72.5103 88.2672C72.338 88.3161 72.338 88.3649 72.338 88.3649Z" fill="#FEB94C"/>
<path d="M76.6472 108.479C76.6472 109.065 76.0726 109.553 75.3832 109.553C74.6937 109.553 74.1191 109.065 74.1191 108.479C74.1191 107.893 74.6937 107.405 75.3832 107.405C76.0726 107.405 76.6472 107.893 76.6472 108.479Z" fill="#E0E0E0"/>
<path d="M75.3832 109.553C76.0726 109.553 76.6472 109.065 76.6472 108.479C76.6472 107.893 76.0726 107.405 75.3832 107.405C74.6937 107.405 74.1191 107.893 74.1191 108.479C74.1191 109.065 74.6937 109.553 75.3832 109.553ZM75.3832 107.454C76.0726 107.454 76.5898 107.942 76.5898 108.479C76.5898 109.065 76.0152 109.504 75.3832 109.504C74.7511 109.504 74.1766 109.016 74.1766 108.479C74.1766 107.893 74.7511 107.454 75.3832 107.454Z" fill="#263238"/>
<path d="M102.445 109.211C101.747 109.211 101.181 108.73 101.181 108.137C101.181 107.544 101.747 107.063 102.445 107.063C103.143 107.063 103.709 107.544 103.709 108.137C103.709 108.73 103.143 109.211 102.445 109.211Z" fill="#E0E0E0"/>
<path d="M102.445 109.163C103.135 109.163 103.709 108.674 103.709 108.088C103.709 107.503 103.135 107.014 102.445 107.014C101.756 107.014 101.181 107.503 101.181 108.088C101.181 108.723 101.756 109.163 102.445 109.163ZM102.445 107.063C103.135 107.063 103.652 107.551 103.652 108.088C103.652 108.625 103.077 109.114 102.445 109.114C101.756 109.114 101.239 108.625 101.239 108.088C101.239 107.551 101.756 107.063 102.445 107.063Z" fill="#263238"/>
<path d="M77.7388 119.268C77.7388 119.268 77.7388 119.317 77.7388 119.415C77.7388 119.512 77.7388 119.708 77.7388 119.903C77.7388 120.294 77.7388 120.928 77.8537 121.709C77.9112 122.491 78.0261 123.467 78.4283 124.541C78.7731 125.615 79.52 126.787 80.6117 127.861C82.6801 130.107 86.4148 131.815 90.839 132.303C91.9306 132.401 93.0798 132.45 94.2289 132.352C95.378 132.255 96.5846 132.059 97.6763 131.571C99.8597 130.692 101.698 129.081 102.905 127.177C104.111 125.224 104.571 123.125 104.686 121.075C104.686 120.538 104.743 120.049 104.686 119.561C104.629 119.317 104.571 119.024 104.456 118.78C104.341 118.536 104.054 118.341 103.767 118.194C103.135 117.999 102.56 118.097 102.043 118.097C101.468 118.097 100.951 118.145 100.377 118.145C96.0101 118.292 92.0455 118.438 88.7131 118.536C85.438 118.683 82.7376 118.78 80.8415 118.829C79.9222 118.878 79.2327 118.878 78.7156 118.927C78.4858 118.927 78.3134 118.927 78.141 118.975C78.0261 118.975 77.9686 118.975 77.9686 118.975C77.9686 118.975 78.0261 118.975 78.141 118.975C78.2559 118.975 78.4858 118.975 78.7156 118.975C79.2327 118.975 79.9222 118.927 80.8415 118.927C82.7376 118.878 85.3806 118.78 88.7131 118.731C92.0455 118.634 95.9526 118.536 100.377 118.39C100.951 118.39 101.468 118.341 102.043 118.341C102.618 118.341 103.192 118.243 103.652 118.438C104.111 118.634 104.341 119.073 104.399 119.561C104.456 120.049 104.456 120.538 104.399 121.026C104.284 123.028 103.824 125.127 102.675 127.031C101.526 128.886 99.7447 130.448 97.6188 131.327C96.5846 131.766 95.4355 132.011 94.2864 132.059C93.1372 132.157 92.0455 132.108 90.9539 132.01C86.6446 131.571 82.9674 129.862 80.8989 127.714C79.8073 126.64 79.0603 125.517 78.7156 124.443C78.3134 123.369 78.1985 122.442 78.0836 121.661C77.9687 120.879 77.9687 120.245 77.9112 119.854C77.9112 119.659 77.9112 119.512 77.8537 119.366C77.7388 119.317 77.7388 119.268 77.7388 119.268Z" fill="#263238"/>
<g opacity="0.3">
<path d="M109.857 132.938C109.57 131.132 110.202 129.325 111.523 127.91C112.902 126.494 114.971 125.566 117.097 125.469C117.327 119.317 116.809 113.117 115.488 107.063L121.234 126.591C121.234 126.591 113.247 126.689 113.075 132.352L109.857 132.938Z" fill="black"/>
</g>
<g opacity="0.3">
<path d="M103.767 58.5841C103.135 54.5809 101.526 50.7241 98.9404 47.3066C98.6532 46.9161 98.3659 46.4767 98.6532 46.0861C98.883 45.7444 99.4576 45.6955 99.8598 45.842C100.262 45.9885 100.549 46.3302 100.837 46.6231C103.652 49.9917 104.744 54.3856 103.767 58.4377" fill="black"/>
</g>
<path d="M4.42414 114.874L12.5255 148.804H68.8906H83.0824C83.8868 148.804 84.5188 148.267 84.5188 147.584C84.5188 146.9 83.8868 146.363 83.0824 146.363H68.8906L61.3637 114.825C61.1914 114.24 60.6168 113.8 59.8699 113.8L5.91802 113.312C4.99871 113.263 4.25177 114.044 4.42414 114.874Z" fill="#E0E0E0"/>
<path d="M4.42426 114.875C4.42426 114.875 4.42426 114.826 4.42426 114.777C4.42426 114.729 4.42426 114.582 4.42426 114.484C4.42426 114.24 4.59663 113.801 5.1712 113.508C5.28612 113.459 5.45848 113.41 5.63085 113.362C5.80322 113.313 5.97559 113.313 6.20541 113.313C6.60761 113.313 7.00982 113.313 7.46947 113.313C8.38878 113.313 9.423 113.313 10.6296 113.313C15.3985 113.362 22.3508 113.41 31.0267 113.459C35.336 113.508 40.1049 113.557 45.2185 113.557C47.8041 113.557 50.4471 113.606 53.205 113.606C54.584 113.606 55.9629 113.606 57.3993 113.654C58.0888 113.654 58.8358 113.654 59.5252 113.654C59.6976 113.654 59.87 113.654 60.0998 113.654C60.2722 113.654 60.502 113.703 60.6169 113.801C60.9617 113.947 61.2489 114.192 61.3639 114.484C61.4213 114.631 61.4788 114.777 61.5362 114.924L61.6511 115.363C61.7086 115.656 61.8235 115.949 61.881 116.291C62.0533 116.925 62.1683 117.511 62.3406 118.146C62.6279 119.366 62.9152 120.636 63.2599 121.905C63.892 124.444 64.4665 127.031 65.156 129.716C66.42 135.038 67.7415 140.555 69.1205 146.267L69.0056 146.218C71.6486 146.218 74.4065 146.218 77.1644 146.218C78.5434 146.218 79.9798 146.218 81.3588 146.218H82.393H82.9101C83.0825 146.218 83.2549 146.218 83.4847 146.267C83.8294 146.315 84.1742 146.511 84.404 146.804C84.6338 147.048 84.6913 147.389 84.6338 147.731C84.5764 148.122 84.2891 148.463 83.8869 148.659C83.6571 148.756 83.4272 148.805 83.1974 148.805H82.5654C81.7035 148.805 80.8417 148.805 79.9798 148.805C78.2561 148.805 76.5324 148.805 74.8662 148.805C71.4762 148.805 68.1437 148.805 64.8113 148.805C58.2037 148.805 51.826 148.805 45.7356 148.805C33.4974 148.805 22.2933 148.805 12.5831 148.805H12.5257V148.756C10.055 138.358 8.04404 129.863 6.60762 124.004C5.91814 121.075 5.34357 118.781 4.99883 117.218C4.82645 116.437 4.65409 115.851 4.59663 115.461C4.48172 115.07 4.42426 114.875 4.42426 114.875C4.42426 114.875 4.48172 115.07 4.59663 115.461C4.71155 115.851 4.82645 116.437 5.05628 117.218C5.45848 118.781 5.97559 121.075 6.72253 124.004C8.15894 129.863 10.1699 138.358 12.698 148.756L12.6406 148.708C22.3508 148.708 33.4973 148.708 45.7931 148.708C51.9409 148.708 58.3187 148.708 64.8687 148.708C68.1437 148.708 71.5337 148.708 74.9236 148.708C76.6473 148.708 78.3136 148.708 80.0373 148.708C80.8991 148.708 81.761 148.708 82.6228 148.708H83.2549C83.4272 148.708 83.6571 148.659 83.8294 148.561C84.1742 148.415 84.4615 148.073 84.5189 147.731C84.5764 147.438 84.5189 147.145 84.2891 146.95C84.1167 146.706 83.8294 146.559 83.4847 146.511C83.3123 146.462 83.1399 146.511 82.9676 146.462H82.4505H81.4162C79.9798 146.462 78.6009 146.462 77.2219 146.462C74.464 146.462 71.7061 146.462 69.063 146.462H69.0056V146.413C67.6266 140.701 66.3051 135.184 65.0411 129.863C64.4091 127.227 63.777 124.59 63.2025 122.052C62.9152 120.782 62.5704 119.513 62.2832 118.292C62.1108 117.658 61.9959 117.072 61.8235 116.437C61.7661 116.144 61.6511 115.803 61.5937 115.51L61.4788 115.07C61.4213 114.924 61.4213 114.777 61.3639 114.631C61.2489 114.387 60.9617 114.143 60.6744 113.996C60.502 113.947 60.3296 113.899 60.2147 113.899C60.0423 113.899 59.87 113.899 59.6976 113.899C59.0081 113.899 58.2612 113.899 57.5717 113.899C56.1353 113.899 54.7563 113.85 53.3774 113.85C50.6195 113.801 47.9764 113.801 45.3909 113.752C40.2772 113.703 35.5083 113.654 31.1991 113.606C22.5231 113.508 15.5709 113.459 10.802 113.41C9.59536 113.41 8.56114 113.362 7.64184 113.362C7.18218 113.362 6.77999 113.362 6.3778 113.362C6.20543 113.362 5.9756 113.362 5.80323 113.41C5.63086 113.459 5.45848 113.508 5.34357 113.557C4.82645 113.85 4.65409 114.24 4.59663 114.533C4.42426 114.729 4.48171 114.875 4.42426 114.875Z" fill="#263238"/>
<path d="M36.9447 130.399C36.9447 131.473 35.9105 132.401 34.589 132.401C33.3249 132.401 32.2333 131.522 32.2333 130.399C32.2333 129.325 33.2675 128.397 34.589 128.397C35.9105 128.397 36.9447 129.276 36.9447 130.399Z" fill="white"/>
<path d="M4.48169 115.118C4.48169 115.118 4.53915 115.118 4.71151 115.118C4.88388 115.118 5.11372 115.118 5.401 115.118C6.03303 115.118 6.95233 115.118 8.15892 115.118C10.5721 115.118 14.0195 115.118 18.2713 115.167C26.7749 115.216 38.5535 115.265 51.5387 115.363C53.1475 115.363 54.7563 115.363 56.3651 115.411C56.7673 115.411 57.1695 115.411 57.5717 115.411C57.7441 115.411 57.9739 115.411 58.2037 115.46C58.4335 115.509 58.6059 115.558 58.7783 115.655C59.123 115.851 59.4103 116.144 59.4678 116.485C59.5827 116.827 59.6401 117.12 59.6976 117.462C60.2722 120 60.8467 122.49 61.4213 124.834C62.513 129.52 63.4897 133.768 64.2941 137.283C65.0985 140.847 65.788 143.727 66.2476 145.68C66.4775 146.656 66.6498 147.438 66.7648 147.975C66.8222 148.219 66.8797 148.414 66.8797 148.56C66.8797 148.707 66.9371 148.756 66.9371 148.756C66.9371 148.756 66.9371 148.707 66.8797 148.56C66.8222 148.414 66.8222 148.219 66.7073 147.975C66.5924 147.438 66.42 146.656 66.1327 145.68C65.6731 143.678 64.9836 140.798 64.1218 137.283C63.2599 133.719 62.2831 129.52 61.1915 124.834C60.6169 122.49 60.0423 120 59.4678 117.462C59.4103 117.169 59.2954 116.827 59.2379 116.485C59.123 116.192 58.8932 115.9 58.6059 115.753C58.4335 115.655 58.2612 115.607 58.0888 115.558C57.9164 115.509 57.7441 115.558 57.5142 115.509C57.112 115.509 56.7098 115.509 56.3076 115.509C54.6989 115.509 53.1475 115.509 51.4813 115.46C38.4961 115.363 26.7174 115.265 18.2138 115.216C13.962 115.167 10.5147 115.167 8.10147 115.118C6.89488 115.118 5.97557 115.07 5.34354 115.07C5.05626 115.07 4.76899 115.07 4.65407 115.07C4.59661 115.118 4.48169 115.118 4.48169 115.118Z" fill="#263238"/>
<path d="M118.993 25.2402C117.039 26.2166 114.224 25.7284 112.845 24.2149C111.466 22.6527 111.753 20.2116 113.477 18.9423C111.581 18.3076 110.317 16.5989 110.432 14.8902C110.547 13.1815 112.041 11.5704 113.994 11.131C113.247 9.56879 113.534 7.66479 114.741 6.29782C115.948 4.93085 118.016 4.19854 120.027 4.39382C121.234 2.14808 124.451 0.878749 127.267 1.46459C128.875 0.488185 131.231 0.585826 132.782 1.61106C134.334 2.63628 134.966 4.5891 134.219 6.15136" fill="#263238"/>
<path d="M118.648 25.9726C115.201 17.7219 119.74 8.59252 129.163 4.97981L130.082 4.63806C140.424 1.26945 149.56 6.83498 153.237 15.7203L169.325 46.2819L161.051 68.9346L148.641 57.7059L142.608 51.7986C142.608 51.7986 132.265 54.2396 127.784 46.0378C125.6 42.0833 121.923 33.6374 118.648 25.9726Z" fill="#AE7461"/>
<path d="M142.493 51.7985C142.493 51.7985 148.87 49.7481 153.524 43.792C153.524 43.792 154.559 50.578 144.504 53.5561L142.493 51.7985Z" fill="#6F4439"/>
<path d="M125.198 32.4658C125.485 33.1004 126.405 33.3934 127.152 33.1493C127.956 32.9052 128.301 32.1729 128.014 31.5382C127.726 30.9035 126.807 30.6106 126.06 30.8547C125.256 31.1476 124.853 31.8311 125.198 32.4658Z" fill="#263238"/>
<path d="M122.9 29.1944C123.13 29.2921 123.877 28.218 125.313 27.6322C126.807 27.0463 128.243 27.2904 128.301 27.0463C128.358 26.9487 128.014 26.7534 127.382 26.607C126.749 26.5093 125.83 26.5093 124.911 26.8511C123.992 27.1928 123.36 27.7786 123.072 28.2669C122.785 28.8039 122.785 29.1456 122.9 29.1944Z" fill="#263238"/>
<path d="M138.873 27.5349C139.16 28.1695 140.079 28.4625 140.826 28.2184C141.631 27.9743 141.976 27.242 141.688 26.6073C141.401 25.9726 140.482 25.6797 139.735 25.9238C138.93 26.1679 138.528 26.9002 138.873 27.5349Z" fill="#263238"/>
<path d="M137.609 23.8243C137.839 23.922 138.586 22.8479 140.022 22.2621C141.516 21.6762 142.952 21.9203 143.01 21.6762C143.067 21.5786 142.722 21.3833 142.09 21.2368C141.458 21.1392 140.539 21.1392 139.62 21.4809C138.7 21.8227 138.068 22.4085 137.781 22.8967C137.494 23.4338 137.494 23.7755 137.609 23.8243Z" fill="#263238"/>
<path d="M137.207 35.2483C137.149 35.1507 136.172 35.3948 134.621 35.7853C134.219 35.883 133.817 35.9806 133.644 35.7853C133.415 35.59 133.415 35.1995 133.415 34.7113C133.357 33.7837 133.3 32.8073 133.242 31.8309C132.955 27.7299 132.553 24.4102 132.38 24.4102C132.208 24.4102 132.265 27.7299 132.553 31.8309C132.61 32.8561 132.725 33.7837 132.783 34.7113C132.84 35.1507 132.783 35.6389 133.242 36.0294C133.472 36.2247 133.817 36.3223 134.104 36.2735C134.391 36.2247 134.621 36.1759 134.794 36.0782C136.287 35.6877 137.264 35.3459 137.207 35.2483Z" fill="#263238"/>
<path d="M134.908 19.6746C135.253 19.9187 136.345 19.0888 137.896 18.4541C139.447 17.7706 140.884 17.5265 140.826 17.136C140.826 16.9407 140.367 16.7942 139.677 16.7454C138.988 16.6966 138.011 16.843 137.092 17.2336C136.172 17.6242 135.483 18.21 135.138 18.6982C134.793 19.1864 134.736 19.577 134.908 19.6746Z" fill="#263238"/>
<path d="M120.314 24.8008C120.774 24.9472 121.866 24.2149 123.302 23.6291C124.739 22.9944 126.118 22.7991 126.232 22.3597C126.29 22.1645 125.945 21.9692 125.256 21.8715C124.566 21.8227 123.532 21.9204 122.555 22.3597C121.578 22.7503 120.832 23.385 120.429 23.8732C120.142 24.3614 120.142 24.7031 120.314 24.8008Z" fill="#263238"/>
<path d="M155.938 24.3124C155.306 23.0431 156.052 21.5297 157.604 21.0903C159.5 20.5533 161.97 20.6509 163.522 23.8731C166.28 29.585 158.983 30.7567 158.868 30.6103C158.868 30.4638 157.087 26.7046 155.938 24.3124Z" fill="#AE7461"/>
<path d="M159.327 27.9251C159.327 27.8763 159.5 27.974 159.73 27.974C159.959 27.974 160.304 27.9251 160.592 27.681C161.166 27.1928 161.338 26.0211 160.879 24.9959C160.649 24.4589 160.247 24.0195 159.845 23.6778C159.442 23.336 158.983 23.1407 158.581 23.2384C158.178 23.2872 158.006 23.5801 158.006 23.7754C158.006 23.9707 158.063 24.0683 158.063 24.0683C158.063 24.0683 157.891 24.0195 157.834 23.7754C157.834 23.6289 157.834 23.4825 157.948 23.336C158.063 23.1896 158.293 23.0431 158.523 22.9455C159.04 22.799 159.73 23.0431 160.189 23.3848C160.649 23.7266 161.109 24.2636 161.396 24.8495C161.913 26.0211 161.741 27.3393 160.879 27.9251C160.477 28.2181 160.017 28.2181 159.73 28.1692C159.442 28.0716 159.327 27.9251 159.327 27.9251Z" fill="#6F4439"/>
<path d="M117.959 12.1561C117.959 12.0097 117.959 11.8144 117.959 11.6679C118.189 10.4474 119.165 9.37338 120.429 8.78754C121.061 8.15287 121.693 7.56702 122.325 7.07882C122.555 5.3701 123.704 3.80785 125.428 2.92908C127.382 1.95267 129.967 2.00149 131.921 2.9779C132.208 2.92908 132.495 2.83144 132.783 2.78262C133.702 1.41565 135.311 0.39042 137.149 0.0974972C139.16 -0.244246 141.401 0.292779 142.895 1.51329C144.331 0.536881 146.457 0.341599 148.066 1.07391C149.675 1.80621 150.709 3.36847 150.537 4.93072C152.031 5.02836 153.582 5.66303 154.214 6.83472C154.846 7.90877 154.214 9.47102 152.892 9.81276C154.559 12.4002 155.88 15.72 157.202 18.6004C158.121 20.6021 155.823 22.8966 156.282 24.3124C158.868 31.5379 154.271 28.7551 145.71 15.0366C145.48 14.9877 145.251 14.9389 145.021 14.8901C144.504 14.7436 144.274 14.4507 143.814 14.2554C143.24 14.0113 142.665 14.4019 142.148 14.646C140.309 15.5736 137.724 15.1342 136.402 13.7672C136.23 14.5972 135.081 14.9877 134.104 14.8901C133.127 14.7436 132.323 14.3042 131.404 13.9625C130.542 13.6208 129.45 13.4255 128.646 13.8649C128.186 14.109 127.841 14.5483 127.324 14.6948C126.405 14.9389 125.543 14.2554 125.026 13.5719C124.566 12.9861 124.107 12.3514 123.417 12.0585C122.785 12.0585 122.153 12.1073 121.521 12.3026C121.234 12.4491 120.889 12.6444 120.602 12.7908C120.487 12.8885 120.314 12.9373 120.142 12.9861C119.97 13.1326 119.797 13.279 119.625 13.4255C117.327 15.7689 117.499 21.8714 117.499 21.8714C115.66 18.6493 116.292 15.1342 117.959 12.1561Z" fill="#263238"/>
<path d="M136.977 3.12466C136.977 3.12466 136.919 3.07584 136.804 3.02702C136.69 2.92938 136.517 2.83174 136.287 2.7341C135.828 2.49 135.138 2.24589 134.161 2.14825C133.185 2.05061 131.978 2.19707 130.886 2.78292C129.795 3.36876 128.76 4.34517 128.358 5.6145L128.531 5.51686C127.899 5.32158 127.152 5.17512 126.405 5.1263C124.624 4.97984 122.842 5.46804 121.693 6.34681C120.487 7.22558 119.912 8.39727 119.912 9.4225C119.912 10.4477 120.314 11.18 120.717 11.6194C120.889 11.8635 121.119 12.01 121.234 12.1076C121.349 12.2053 121.463 12.2541 121.463 12.2541C121.463 12.2541 121.176 12.0588 120.831 11.6194C120.487 11.18 120.085 10.4477 120.142 9.47132C120.142 8.49491 120.717 7.37204 121.866 6.59091C123.015 5.76097 124.681 5.32158 126.405 5.46804C127.094 5.51686 127.784 5.66333 128.416 5.85861L128.588 5.90743L128.646 5.76097C128.99 4.54046 129.967 3.61287 131.001 3.02702C132.036 2.44118 133.242 2.34354 134.161 2.39236C135.081 2.44118 135.828 2.68528 136.287 2.88056C136.747 2.9782 136.977 3.12466 136.977 3.12466Z" fill="white"/>
<path d="M151.513 4.93084C151.513 4.93084 151.456 4.93084 151.398 4.88202C151.341 4.8332 151.226 4.78438 151.054 4.73556C150.766 4.63792 150.307 4.49146 149.675 4.49146C149.043 4.49146 148.296 4.54028 147.549 4.88202C146.744 5.17494 145.94 5.76079 145.48 6.59073H145.71C144.848 5.61433 143.24 4.93084 141.458 4.8332C140.597 4.78438 139.677 4.88202 138.758 5.12612C137.839 5.37022 137.034 5.76079 136.23 6.29781C134.736 7.27422 133.587 8.54355 132.725 9.76406H132.955C131.691 8.73883 130.025 8.25063 128.531 8.25063C127.037 8.25063 125.83 8.69001 124.968 9.22704C124.106 9.76406 123.589 10.3499 123.245 10.7405C123.072 10.9358 123.015 11.131 122.957 11.2287C122.9 11.3263 122.842 11.424 122.9 11.424C122.9 11.424 123.072 11.1799 123.36 10.7893C123.704 10.3987 124.221 9.8617 125.083 9.3735C125.945 8.88529 127.152 8.49473 128.588 8.49473C129.967 8.49473 131.576 8.98294 132.782 9.95934L132.897 10.057L133.012 9.91052C133.874 8.73883 134.966 7.4695 136.46 6.54191C137.207 6.05371 138.068 5.66315 138.873 5.41904C139.735 5.17494 140.597 5.0773 141.458 5.12612C143.182 5.17494 144.676 5.85843 145.538 6.78602L145.653 6.93248L145.71 6.78602C146.112 6.00489 146.859 5.41904 147.606 5.12612C148.353 4.78438 149.1 4.68674 149.675 4.68674C150.881 4.5891 151.513 4.97966 151.513 4.93084Z" fill="white"/>
<path d="M123.187 11.6681C123.187 11.6681 123.245 11.7169 123.417 11.8634C123.589 11.961 123.762 12.1563 123.992 12.4004C124.221 12.6445 124.509 12.9862 124.853 13.3768C125.198 13.7673 125.6 14.2067 126.232 14.4997C126.577 14.6461 126.979 14.6949 127.382 14.5485C127.784 14.4508 128.128 14.2556 128.473 14.0603C128.818 13.865 129.22 13.7185 129.622 13.7185C130.025 13.7185 130.484 13.8162 130.944 13.9626C131.403 14.1091 131.806 14.3044 132.265 14.4997C132.725 14.6949 133.185 14.939 133.759 15.0367C134.334 15.1343 134.908 15.0367 135.425 14.8902C135.713 14.7926 135.943 14.6949 136.23 14.5485C136.46 14.402 136.689 14.1579 136.747 13.865L136.46 13.9138C136.747 14.2067 137.034 14.4508 137.379 14.6949C137.724 14.8902 138.183 15.0855 138.586 15.1831C139.447 15.3784 140.424 15.3784 141.343 15.1343C141.746 15.0367 142.09 14.8902 142.435 14.7438C142.78 14.5973 143.067 14.402 143.412 14.3532C143.757 14.3044 144.044 14.402 144.389 14.5485C144.733 14.6949 145.078 14.8414 145.423 14.939C146.802 15.3296 148.296 15.4761 149.56 14.9879C150.766 14.4997 151.628 13.5721 152.088 12.6445C152.548 11.7169 152.605 10.7405 152.375 9.95935L152.318 10.057C153.237 9.86171 153.926 9.32469 154.214 8.78766C154.559 8.25064 154.559 7.66479 154.444 7.22541C154.329 6.78603 154.099 6.4931 153.984 6.34664C153.926 6.249 153.812 6.20018 153.812 6.15136C153.754 6.10254 153.754 6.10254 153.754 6.10254C153.697 6.10254 154.214 6.44428 154.386 7.27423C154.501 7.66479 154.444 8.20182 154.156 8.73884C153.812 9.27587 153.18 9.76407 152.318 9.91053H152.203V10.0082C152.375 10.7893 152.318 11.7169 151.858 12.5957C151.398 13.4744 150.594 14.3044 149.445 14.7926C148.296 15.232 146.859 15.1343 145.538 14.7438C145.193 14.6461 144.906 14.5485 144.561 14.402C144.274 14.2556 143.814 14.1091 143.412 14.1579C143.182 14.1579 143.01 14.2067 142.837 14.3044L142.378 14.5485C142.033 14.6949 141.688 14.8414 141.343 14.8902C140.482 15.1343 139.562 15.1343 138.758 14.939C138.356 14.8414 137.954 14.6949 137.609 14.4997C137.264 14.3044 136.977 14.0603 136.747 13.7673L136.517 13.5232L136.46 13.8162C136.402 14.2556 135.885 14.4997 135.368 14.6461C134.851 14.7926 134.334 14.8414 133.817 14.7926C133.3 14.7438 132.897 14.4997 132.438 14.3044C131.978 14.1091 131.518 13.9138 131.116 13.7673C130.657 13.6209 130.197 13.4744 129.737 13.4744C129.22 13.4744 128.818 13.6697 128.473 13.865C128.128 14.0603 127.784 14.2556 127.439 14.3532C127.094 14.4508 126.749 14.4508 126.405 14.3044C125.773 14.0603 125.428 13.5721 125.083 13.2303C124.738 12.8398 124.451 12.5468 124.221 12.3027C123.992 12.0586 123.762 11.8634 123.589 11.7657C123.302 11.7169 123.187 11.6681 123.187 11.6681Z" fill="#455A64"/>
<path d="M263.554 119.122C263.554 119.122 266.542 125.859 267.576 127.666C268.61 129.472 267.576 148.902 267.576 148.902H199.949L198.973 131.815L231.551 115.119L263.554 119.122Z" fill="#263238"/>
<path d="M119.855 91.8801L93.2522 96.1275C93.2522 96.1275 93.7693 105.892 93.4246 105.647C93.0799 105.403 130.714 105.355 130.714 105.355L119.855 91.8801Z" fill="#AE7461"/>
<path d="M93.7118 96.1277L75.2682 100.961L67.1668 105.794L59.9273 112.385C59.9273 112.385 59.9847 114.24 62.7426 113.068C65.4431 111.897 68.1436 109.749 68.1436 109.749L62.7426 118.146C62.7426 118.146 64.926 120.001 66.6497 117.316C68.4309 114.679 71.0739 111.262 71.0739 111.262L72.6827 110.237C72.6827 110.237 71.0164 112.775 71.0164 113.459C71.0164 114.142 72.6827 117.95 72.6827 117.95L75.3257 121.026C75.3257 121.026 76.9344 120.88 76.8195 119.464C76.7046 118.048 75.7279 117.023 75.7279 117.023L78.9454 119.415C78.9454 119.415 80.0946 118.878 79.1178 117.12L77.9112 116.046L77.509 114.338L78.4858 113.02C78.4858 113.02 80.9564 113.166 82.9099 110.725C84.8635 108.284 87.7938 108.772 91.9881 106.624C96.1824 104.525 95.7802 102.181 95.7802 102.181L93.7118 96.1277Z" fill="#AE7461"/>
<path d="M83.7717 102.132C83.7142 102.132 83.7143 102.913 83.0822 104.036C82.7375 104.573 82.2778 105.208 81.6458 105.794C81.0138 106.38 80.2094 106.966 79.3475 107.6C78.4857 108.186 77.6238 108.723 77.0493 109.407C76.4747 110.09 76.2449 110.92 76.4747 111.555C76.7045 112.189 77.2791 112.531 77.6813 112.629C77.9111 112.678 78.026 112.678 78.141 112.678C78.2559 112.678 78.3133 112.629 78.3133 112.629C78.3133 112.58 78.0835 112.629 77.6813 112.531C77.3366 112.433 76.8194 112.092 76.6471 111.506C76.4747 110.92 76.7045 110.188 77.2216 109.553C77.7962 108.918 78.6581 108.381 79.5199 107.795C80.3818 107.21 81.1862 106.575 81.8182 105.989C82.4502 105.354 82.9673 104.72 83.2546 104.134C83.5419 103.548 83.7142 103.06 83.7717 102.718C83.8292 102.328 83.7717 102.132 83.7717 102.132Z" fill="#6F4439"/>
<path d="M68.2585 109.407C68.2585 109.407 68.4308 109.358 68.7756 109.212C69.0629 109.065 69.5225 108.87 70.0971 108.626C71.1888 108.089 72.6826 107.356 74.2914 106.527C75.5555 105.843 76.7046 105.16 77.6239 104.623H77.509C78.3134 104.818 79.0029 105.013 79.4625 105.111C79.9222 105.208 80.2095 105.257 80.2095 105.257C80.2095 105.257 79.9796 105.16 79.52 105.013C79.0603 104.867 78.3709 104.671 77.5665 104.427H77.509L77.4515 104.476C76.4748 105.013 75.3256 105.648 74.0616 106.331C72.4528 107.21 71.0164 107.942 69.9247 108.528C68.8905 109.016 68.2585 109.358 68.2585 109.407Z" fill="#6F4439"/>
<path d="M72.7401 109.651C72.6827 109.7 73.2572 110.237 74.234 110.432C75.2107 110.676 76.0151 110.432 75.9577 110.383C75.9577 110.285 75.2107 110.432 74.2914 110.188C73.4296 110.041 72.7976 109.602 72.7401 109.651Z" fill="#6F4439"/>
<path d="M75.8427 111.262C75.7852 111.262 75.2107 112.531 74.6361 114.142C74.4637 114.582 74.6361 115.021 74.8085 115.363C74.9808 115.705 75.2107 115.998 75.3256 116.242C75.6129 116.73 75.5554 117.072 75.6129 117.072C75.6703 117.072 75.7852 116.73 75.4979 116.193C75.383 115.949 75.2107 115.656 75.0383 115.314C74.8659 114.972 74.751 114.631 74.9234 114.24C75.4979 112.629 75.9001 111.311 75.8427 111.262Z" fill="#6F4439"/>
<path d="M265.392 115.705L241.663 93.9308C241.663 93.9308 210.464 48.3813 204.259 44.1827C188.745 33.6863 171.106 39.203 171.106 39.203L164.843 37.1526L154.214 60.0494C154.214 60.0494 158.121 64.9314 158.523 65.9078C158.925 66.8842 205.982 127.373 205.982 127.373L222.817 147.389C222.817 147.389 248.902 143.239 260.049 131.132C265.105 125.615 265.392 115.705 265.392 115.705Z" fill="#FAFAFA"/>
<path d="M151.571 59.5125L148.066 56.9739L148.008 64.6875L141.975 71.9129C141.975 71.9129 159.615 89.9277 163.234 92.9545C166.854 95.9814 195.812 125.176 195.812 125.176C195.812 125.176 197.364 139.041 199.317 142.996C201.271 146.901 214.428 145.876 214.428 145.876L207.878 129.96L205.178 118.488L172.313 81.5306L159.385 67.1774L151.571 59.5125Z" fill="#FAFAFA"/>
<path d="M160.419 84.2643C160.419 84.7037 142.55 99.2522 142.55 99.2522C142.55 99.2522 141.286 101.986 139.792 102.474C138.298 102.914 130.944 105.843 130.944 105.843L119.395 91.7826C119.395 91.7826 125.256 87.1935 126.922 86.4124C128.588 85.6313 132.553 81.6768 132.553 81.6768L145.94 68.0071L156.225 72.4497L160.419 84.2643Z" fill="#FAFAFA"/>
<path d="M159.442 67.1282C159.442 67.1282 159.442 67.0793 159.385 66.9817C159.327 66.8841 159.212 66.7376 159.098 66.5911C158.868 66.2494 158.523 65.7612 158.063 65.1265C157.144 63.8572 155.88 62.0997 154.329 59.9027L154.214 60.0492C157.029 60.6839 160.362 61.4162 163.924 62.2461L164.039 62.2949L164.096 62.1973C164.441 61.1233 164.786 60.0492 165.13 58.8775C166.797 53.4584 168.291 48.5276 169.382 44.9637C169.899 43.2062 170.359 41.7415 170.646 40.7163C170.761 40.2281 170.876 39.8375 170.991 39.5446C171.049 39.3005 171.106 39.1541 171.106 39.1541C171.106 39.1541 171.049 39.3005 170.934 39.5446C170.819 39.8375 170.704 40.2281 170.531 40.6675C170.187 41.6927 169.727 43.1085 169.152 44.866C168.003 48.4299 166.509 53.3608 164.786 58.7799C164.441 59.9027 164.096 61.0256 163.752 62.0997L163.924 62.002C160.304 61.2209 156.972 60.4398 154.156 59.8539L153.869 59.8051L154.041 60.0004C155.65 62.1485 156.972 63.906 157.891 65.1754C158.351 65.7612 158.695 66.2494 158.983 66.5911C159.098 66.7376 159.212 66.8841 159.27 66.9817C159.385 67.1282 159.442 67.1282 159.442 67.1282Z" fill="#263238"/>
<path d="M148.066 64.3942C148.066 64.3942 148.181 64.4918 148.353 64.6383C148.583 64.8336 148.928 65.0289 149.272 65.3218C150.134 65.9076 151.283 66.6887 152.662 67.6652L152.892 67.8116L152.835 67.5675C152.662 66.1029 152.433 64.3942 152.203 62.539C152.145 62.002 152.088 61.465 151.973 60.9768L151.743 61.0744C153.812 62.7343 155.65 64.1989 156.972 65.2241C157.604 65.7123 158.121 66.1029 158.523 66.4446C158.868 66.7376 159.098 66.884 159.098 66.884C159.098 66.884 158.925 66.6887 158.58 66.3958C158.178 66.0541 157.661 65.6635 157.087 65.1265C155.823 64.0524 153.984 62.5878 151.915 60.8791L151.628 60.635L151.686 60.9768C151.743 61.465 151.801 62.002 151.858 62.539C152.088 64.3454 152.318 66.0541 152.547 67.5187L152.777 67.4211C151.398 66.4935 150.192 65.7612 149.33 65.1753C148.928 64.9312 148.64 64.7359 148.353 64.5406C148.238 64.4918 148.066 64.3942 148.066 64.3942Z" fill="#263238"/>
<path d="M145.882 75.2812C145.882 75.2812 145.94 75.3789 146.055 75.4765C146.17 75.623 146.342 75.8183 146.572 76.0624C147.032 76.5506 147.664 77.2341 148.468 78.1128C150.077 79.8216 152.375 82.1649 154.903 84.7036C157.489 87.2423 159.844 89.488 161.626 91.0991C162.487 91.929 163.234 92.5637 163.694 93.0031C163.924 93.1984 164.096 93.3936 164.269 93.4913C164.384 93.5889 164.498 93.6377 164.498 93.6377C164.498 93.6377 164.441 93.5401 164.326 93.4425C164.154 93.296 163.981 93.1007 163.809 92.9054C163.292 92.4172 162.602 91.7337 161.798 90.9526C160.074 89.2927 157.719 87.047 155.133 84.5083C152.547 81.9697 150.249 79.6751 148.583 77.9664C147.779 77.1364 147.089 76.4529 146.629 75.9647C146.4 75.7695 146.227 75.5742 146.112 75.4277C145.94 75.3301 145.882 75.2812 145.882 75.2812Z" fill="#263238"/>
<path d="M127.669 86.4612C127.669 86.4612 127.784 86.6565 128.128 87.047C128.416 87.3888 128.875 87.9258 129.45 88.5116C130.599 89.7322 132.208 91.392 134.104 93.1496C136 94.9071 137.839 96.3717 139.16 97.4458C139.85 97.9828 140.367 98.3734 140.769 98.6663C141.171 98.9592 141.401 99.1057 141.401 99.0569C141.401 99.0569 141.229 98.8616 140.826 98.5686C140.424 98.2269 139.907 97.7875 139.275 97.2993C137.953 96.2253 136.172 94.7118 134.276 93.0031C132.38 91.2456 130.771 89.6345 129.565 88.4628C128.99 87.877 128.531 87.4376 128.186 87.047C127.841 86.6565 127.669 86.4612 127.669 86.4612Z" fill="#263238"/>
<path d="M217.186 141.189C217.186 141.189 217.129 141.14 217.071 140.994C216.956 140.847 216.842 140.652 216.612 140.408C216.21 139.92 215.635 139.187 214.945 138.26C213.452 136.405 211.326 133.671 208.683 130.351C203.397 123.662 196.042 114.484 187.998 104.281C180.012 94.0285 172.772 84.8014 167.946 77.8201C165.475 74.4027 163.349 71.6687 161.741 69.8624C160.936 68.9836 160.304 68.3001 159.844 67.8119C159.615 67.6166 159.442 67.4213 159.327 67.2749C159.212 67.1772 159.155 67.1284 159.155 67.1284C159.155 67.1284 159.212 67.1772 159.327 67.3237C159.442 67.4702 159.615 67.6166 159.844 67.8607C160.304 68.3001 160.936 69.0324 161.683 69.9112C163.234 71.7175 165.36 74.4515 167.831 77.8689C172.6 84.8502 179.782 94.1261 187.826 104.378C195.87 114.582 203.224 123.76 208.568 130.449C211.268 133.768 213.394 136.453 214.888 138.309C215.635 139.236 216.21 139.92 216.612 140.457C216.784 140.701 216.956 140.896 217.071 140.994C217.129 141.14 217.186 141.189 217.186 141.189Z" fill="#263238"/>
<path d="M215.865 116.974C215.865 116.974 215.98 116.925 216.095 116.828C216.267 116.681 216.497 116.535 216.784 116.388C217.359 115.998 218.163 115.412 219.14 114.631C221.151 113.117 223.794 110.969 226.609 108.479C229.424 105.989 231.78 103.597 233.446 101.791C234.251 100.912 234.94 100.18 235.343 99.6915C235.572 99.4474 235.687 99.2521 235.86 99.1057C235.975 98.9592 236.032 98.9104 236.032 98.9104C236.032 98.9104 235.975 98.9592 235.802 99.1057C235.63 99.2521 235.457 99.4474 235.285 99.6427C234.768 100.18 234.136 100.863 233.274 101.693C231.608 103.451 229.195 105.794 226.379 108.284C223.621 110.774 220.978 112.971 219.025 114.484C218.048 115.216 217.301 115.851 216.727 116.29C216.497 116.486 216.267 116.632 216.095 116.779C215.922 116.876 215.865 116.974 215.865 116.974Z" fill="#263238"/>
<path d="M179.208 46.4282C179.208 46.4282 179.437 46.0864 179.954 45.5982C180.472 45.0612 181.333 44.3777 182.54 43.743C183.747 43.1084 185.413 42.5713 187.251 42.1808C189.09 41.7902 191.216 41.4973 193.399 41.5461C195.583 41.6438 197.651 42.0831 199.317 42.8643C200.984 43.6454 202.305 44.6218 203.224 45.5494C204.144 46.477 204.776 47.3557 205.121 47.9416C205.523 48.5274 205.695 48.918 205.695 48.918C205.695 48.918 205.695 48.8204 205.58 48.6739C205.523 48.5274 205.408 48.2345 205.235 47.9416C204.891 47.3069 204.316 46.4282 203.397 45.4517C202.477 44.4753 201.156 43.4501 199.432 42.669C197.709 41.839 195.64 41.3508 193.399 41.302C191.159 41.2044 189.033 41.5461 187.137 41.9367C185.24 42.3272 183.632 42.9131 182.368 43.5477C181.104 44.2312 180.299 44.9635 179.782 45.5006C179.552 45.7935 179.38 45.9888 179.265 46.1841C179.265 46.3305 179.208 46.4282 179.208 46.4282Z" fill="#263238"/>
<path d="M207.936 52.9213C207.936 52.9213 208.97 83.0923 207.936 97.3967C207.649 101.742 205.695 104.671 205.35 104.769C204.316 105.013 183.459 103.548 183.459 103.548C183.459 103.548 183.287 98.129 181.736 96.0786C180.184 94.0281 184.206 94.9069 184.206 94.9069C184.206 94.9069 175.588 57.7057 176.679 50.8708" fill="#FAFAFA"/>
<path d="M176.622 50.822C176.622 50.822 176.565 51.1149 176.507 51.652C176.507 52.2378 176.45 53.0678 176.564 54.1418C176.679 56.2899 177.082 59.4144 177.714 63.3689C178.978 71.229 181.161 82.2136 184.034 94.9069L184.206 94.7604C183.689 94.6628 183.172 94.5651 182.597 94.5651C182.31 94.5651 182.023 94.5651 181.736 94.6628C181.621 94.7116 181.448 94.7604 181.333 94.9069C181.218 95.0045 181.161 95.151 181.161 95.2974C181.161 95.5904 181.333 95.7857 181.448 95.9809C181.621 96.1762 181.736 96.3715 181.851 96.5668C182.08 96.9573 182.253 97.3967 182.368 97.8849C182.942 99.6913 183.115 101.595 183.229 103.499V103.597H183.344C186.16 103.792 189.205 103.987 192.25 104.183C194.836 104.329 197.364 104.525 199.834 104.671C201.099 104.72 202.305 104.817 203.569 104.866C203.856 104.866 204.201 104.866 204.488 104.866C204.661 104.866 204.776 104.866 204.948 104.866H205.178C205.235 104.866 205.408 104.769 205.465 104.72C205.925 104.28 206.155 103.792 206.385 103.353C207.361 101.449 207.821 99.3984 207.993 97.3967C208.051 96.4203 208.108 95.4439 208.166 94.4675C208.223 93.4911 208.223 92.5147 208.281 91.5871C208.51 84.0199 208.453 77.1851 208.338 71.4242C208.281 65.7123 208.108 61.0743 208.051 57.8522C207.993 56.2411 207.936 55.0206 207.936 54.1418C207.936 53.7024 207.878 53.4095 207.878 53.1654C207.878 52.9701 207.878 52.8237 207.878 52.8237C207.878 52.8237 207.878 52.9213 207.878 53.1654C207.878 53.4095 207.878 53.7024 207.878 54.1418C207.878 54.9718 207.936 56.2411 207.936 57.8522C207.993 61.0743 208.108 65.7123 208.166 71.4242C208.223 77.1362 208.223 83.9711 207.993 91.5383C207.936 92.4659 207.936 93.4423 207.878 94.4187C207.821 95.3951 207.763 96.3715 207.706 97.3479C207.534 99.3007 207.074 101.302 206.155 103.206C205.925 103.646 205.638 104.134 205.293 104.525C205.293 104.573 205.235 104.573 205.235 104.573H205.178H204.948C204.833 104.573 204.661 104.573 204.488 104.573C204.201 104.573 203.856 104.573 203.569 104.573C202.363 104.525 201.099 104.476 199.834 104.378C197.306 104.232 194.778 104.085 192.25 103.89C189.205 103.695 186.217 103.499 183.344 103.304L183.459 103.45C183.344 101.498 183.172 99.5936 182.597 97.7873C182.483 97.3479 182.253 96.8597 182.023 96.4691C181.793 96.0298 181.391 95.688 181.333 95.2486C181.333 95.0533 181.448 94.9069 181.678 94.8581C181.908 94.8092 182.138 94.7604 182.425 94.7604C182.942 94.7604 183.459 94.8581 183.976 94.9069L184.206 94.9557L184.149 94.7604C181.276 82.0671 179.035 71.0825 177.714 63.2712C177.082 59.3656 176.622 56.2411 176.507 54.093C176.392 53.0189 176.392 52.189 176.45 51.6031C176.45 51.3102 176.507 51.1149 176.507 50.9685C176.622 50.9197 176.622 50.822 176.622 50.822Z" fill="#FAFAFA"/>
<path d="M183.517 95.0532C183.517 95.0532 183.861 95.102 184.436 95.1997C185.011 95.2973 185.872 95.395 186.907 95.4926C189.033 95.7367 191.905 95.932 195.123 96.0296C198.341 96.1273 201.271 96.1273 203.397 96.0785C204.431 96.0296 205.293 95.9808 205.925 95.9808C206.499 95.932 206.844 95.932 206.844 95.8832C206.844 95.8832 206.499 95.8832 205.925 95.8832C205.293 95.8832 204.431 95.8832 203.397 95.932C201.271 95.932 198.341 95.932 195.123 95.8344C191.905 95.7367 188.975 95.5414 186.907 95.3461C185.872 95.2485 185.068 95.1997 184.436 95.1509C183.861 95.102 183.517 95.0532 183.517 95.0532Z" fill="#263238"/>
<path d="M205.35 104.769L193.055 148.61H180.816L184.264 103.646L205.35 104.769Z" fill="#AE7461"/>
<path d="M181.908 142.409L169.67 144.216L158.638 147.047C157.604 147.34 156.972 147.828 157.374 148.951L193.055 148.61V143.337L181.908 142.409Z" fill="#AE7461"/>
<path d="M162.373 148.902C162.43 148.902 162.315 148.707 162.373 148.316C162.43 147.926 162.775 147.438 163.579 147.194C164.326 146.95 165.303 146.95 166.395 146.852C167.486 146.754 168.636 146.657 169.9 146.559C172.37 146.315 174.611 146.12 176.277 145.973C177.024 145.875 177.656 145.827 178.173 145.778C178.633 145.729 178.863 145.68 178.863 145.68C178.863 145.68 178.633 145.68 178.173 145.68C177.656 145.729 177.024 145.778 176.22 145.827C174.611 145.973 172.313 146.12 169.842 146.364C168.578 146.461 167.429 146.608 166.337 146.705C165.82 146.754 165.303 146.803 164.786 146.852C164.326 146.901 163.867 146.95 163.464 147.096C162.66 147.389 162.258 147.975 162.258 148.365C162.258 148.561 162.258 148.707 162.315 148.805C162.315 148.854 162.315 148.902 162.373 148.902Z" fill="#6F4439"/>
<g opacity="0.3">
<path d="M183.517 112.922L179.208 96.9087V91.8802L180.816 91.0014L177.024 58.1941L184.149 94.9071L183.287 94.8582C182.31 94.8094 181.104 94.6141 181.333 95.3953L182.655 97.8851L184.149 104.525L183.517 112.922Z" fill="black"/>
</g>
<path d="M143.01 35.6882C144.389 36.9087 144.791 38.6663 143.642 40.0333C143.24 40.5215 142.608 40.8632 141.918 40.912C141.114 41.0097 140.252 40.9608 139.62 40.4238C138.988 39.9356 138.413 39.3986 138.183 38.7151C139.505 37.8852 141.688 36.6158 143.01 35.6882Z" fill="#6F4439"/>
<path d="M140.079 40.7653C140.079 40.7653 140.252 40.8629 140.654 40.9606C141.056 41.0094 141.631 41.0582 142.32 40.8141C143.01 40.6188 143.699 40.1306 144.101 39.3983C144.504 38.666 144.561 37.6896 144.159 36.8597C143.929 36.4203 143.642 36.0297 143.297 35.688L143.182 35.5903L143.067 35.6392C141.688 36.5179 140.482 37.299 139.62 37.8849C138.758 38.4707 138.241 38.8125 138.298 38.8125C138.298 38.8613 138.873 38.5196 139.735 37.9825C140.654 37.4455 141.861 36.7132 143.297 35.8344H143.125C143.469 36.1274 143.699 36.5179 143.929 36.9085C144.331 37.7384 144.274 38.6172 143.872 39.2519C143.527 39.9354 142.837 40.4236 142.263 40.6188C141.631 40.8629 141.056 40.8629 140.711 40.8141C140.252 40.7653 140.079 40.7165 140.079 40.7653Z" fill="#263238"/>
</g>
<defs>
<clipPath id="clip0_58_6021">
<rect width="272" height="149" fill="white" transform="matrix(-1 0 0 1 272 0)"/>
</clipPath>
</defs>
</svg>
