<svg width="64" height="46" viewBox="0 0 64 46" fill="none" xmlns="http://www.w3.org/2000/svg">
<path d="M19.4793 6.59326H58.8385C61.1076 6.59326 62.947 8.43273 62.947 10.7018V30.2346C62.947 32.5037 61.1076 34.3431 58.8385 34.3431H51.4208V44.6863L39.1589 34.3431H19.4793C17.2102 34.3431 15.3707 32.5037 15.3707 30.2346V10.7018C15.3707 8.43273 17.2102 6.59326 19.4793 6.59326Z" fill="#FEBC33" stroke="#FF9801" stroke-width="1.02714"/>
<path d="M51.3339 0H4.61851C2.06778 0 0 2.06778 0 4.61851V27.1338C0 29.6845 2.06778 31.7523 4.61851 31.7523H13.5555V43.5872L27.9762 31.7523H51.3339C53.8846 31.7523 55.9524 29.6845 55.9524 27.1338V4.61851C55.9524 2.06778 53.8846 0 51.3339 0Z" fill="white"/>
<ellipse cx="15.3708" cy="16.1161" rx="4.39166" ry="4.39535" fill="#FEBC33"/>
<ellipse cx="27.8138" cy="16.1161" rx="4.39166" ry="4.39535" fill="#FEBC33"/>
<ellipse cx="40.2569" cy="16.1161" rx="4.39166" ry="4.39535" fill="#FEBC33"/>
</svg>
